<svg width="22" height="18" viewBox="0 0 22 18" fill="none" xmlns="http://www.w3.org/2000/svg">
<path d="M0.181152 9C1.12115 3.88 5.60815 0 11.0002 0C16.3922 0 20.8782 3.88 21.8192 9C20.8792 14.12 16.3922 18 11.0002 18C5.60815 18 1.12215 14.12 0.181152 9ZM11.0002 14C12.3262 14 13.598 13.4732 14.5357 12.5355C15.4734 11.5979 16.0002 10.3261 16.0002 9C16.0002 7.67392 15.4734 6.40215 14.5357 5.46447C13.598 4.52678 12.3262 4 11.0002 4C9.67407 4 8.4023 4.52678 7.46462 5.46447C6.52694 6.40215 6.00015 7.67392 6.00015 9C6.00015 10.3261 6.52694 11.5979 7.46462 12.5355C8.4023 13.4732 9.67407 14 11.0002 14ZM11.0002 12C10.2045 12 9.44144 11.6839 8.87883 11.1213C8.31622 10.5587 8.00015 9.79565 8.00015 9C8.00015 8.20435 8.31622 7.44129 8.87883 6.87868C9.44144 6.31607 10.2045 6 11.0002 6C11.7958 6 12.5589 6.31607 13.1215 6.87868C13.6841 7.44129 14.0002 8.20435 14.0002 9C14.0002 9.79565 13.6841 10.5587 13.1215 11.1213C12.5589 11.6839 11.7958 12 11.0002 12Z" fill="#262626"/>
</svg>
