<svg width="46" height="47" viewBox="0 0 46 47" fill="none" xmlns="http://www.w3.org/2000/svg">
<path d="M2.48267 12.8567C4.42402 8.99089 7.4022 5.74118 11.0843 3.47075C14.7665 1.20031 19.0075 -0.00137692 23.3333 -1.41009e-05C29.6217 -1.41009e-05 34.9043 2.30999 38.9433 6.07832L32.2537 12.7703C29.834 10.458 26.7587 9.27965 23.3333 9.27965C17.255 9.27965 12.11 13.3863 10.2783 18.9C9.81167 20.3 9.54567 21.7933 9.54567 23.3333C9.54567 24.8733 9.81167 26.3667 10.2783 27.7667C12.1123 33.2826 17.255 37.387 23.3333 37.387C26.4717 37.387 29.1433 36.5587 31.234 35.1587C32.446 34.3607 33.4836 33.3252 34.2841 32.1148C35.0846 30.9044 35.6314 29.5443 35.8913 28.1167H23.3333V19.0913H45.3087C45.584 20.6173 45.7333 22.2087 45.7333 23.863C45.7333 30.9703 43.19 36.953 38.7753 41.013C34.916 44.5783 29.6333 46.6666 23.3333 46.6666C20.2688 46.6679 17.2341 46.0652 14.4026 44.893C11.5711 43.7208 8.99838 42.0022 6.83144 39.8352C4.6645 37.6683 2.94582 35.0955 1.77365 32.264C0.601472 29.4326 -0.00122468 26.3978 1.86833e-06 23.3333C1.86833e-06 19.5673 0.900668 16.0067 2.48267 12.8567Z" fill="#262626"/>
</svg>
